HIERARCHY
ROOT Hips
{
	OFFSET 0.00 0.00 0.00
	CHANNELS 6 Xposition Yposition Zposition Xrotation Yrotation Zrotation
	JOINT LeftUpLeg
	{
		OFFSET 4.29448 0.00000 0.00000
		CHANNELS 3 Xrotation Yrotation Zrotation
		JOINT LeftLeg
		{
			OFFSET 0.00000 -19.20276 0.00000
			CHANNELS 3 Xrotation Yrotation Zrotation
			JOINT LeftFoot
			{
				OFFSET -0.02174 -15.68217 -0.01872
				CHANNELS 3 Xrotation Yrotation Zrotation
				JOINT LeftToeBase
				{
					OFFSET 0.04083 -0.34615 6.18044
					CHANNELS 3 Xrotation Yrotation Zrotation
					End Site
					{
						OFFSET 0.01735 0.60354 2.89036
					}
				}
			}
		}
	}
	JOINT RightUpLeg
	{
		OFFSET -4.29448 0.00000 0.00000
		CHANNELS 3 Xrotation Yrotation Zrotation
		JOINT RightLeg
		{
			OFFSET -0.00000 -19.20276 0.46564
			CHANNELS 3 Xrotation Yrotation Zrotation
			JOINT RightFoot
			{
				OFFSET 0.03510 -15.68217 0.03397
				CHANNELS 3 Xrotation Yrotation Zrotation
				JOINT RightToeBase
				{
					OFFSET -0.09359 -0.35473 6.17938
					CHANNELS 3 Xrotation Yrotation Zrotation
					End Site
					{
						OFFSET -0.06574 -1.30919 2.64583
					}
				}
			}
		}
	}
	JOINT Spine
	{
		OFFSET 0.00000 0.03937 0.00000
		CHANNELS 3 Xrotation Yrotation Zrotation
		JOINT Spine1
		{
			OFFSET 0.00000 8.13660 0.00000
			CHANNELS 3 Xrotation Yrotation Zrotation
			JOINT Neck
			{
				OFFSET -0.08254 7.72853 -1.10446
				CHANNELS 3 Xrotation Yrotation Zrotation
				JOINT Head
				{
					OFFSET 0.00000 7.64180 0.00000
					CHANNELS 3 Xrotation Yrotation Zrotation
					End Site
					{
						OFFSET 0.00000 4.52755 0.00000
					}
				}
			}
			JOINT LeftShoulder
			{
				OFFSET -0.08254 7.72853 -1.10446
				CHANNELS 3 Xrotation Yrotation Zrotation
				JOINT LeftArm
				{
					OFFSET 7.63573 -0.00003 0.00000
					CHANNELS 3 Xrotation Yrotation Zrotation
					JOINT LeftForeArm
					{
						OFFSET 10.94210 -0.00004 0.00000
						CHANNELS 3 Xrotation Yrotation Zrotation
						JOINT LeftHand
						{
							OFFSET 9.96262 -0.00004 0.00000
							CHANNELS 3 Xrotation Yrotation Zrotation
							JOINT LeftHandThumb
							{
								OFFSET 0.00000 0.00000 0.00000
								CHANNELS 3 Xrotation Yrotation Zrotation
								End Site
								{
									OFFSET 0.00000 0.00000 3.93700
								}
							}
							JOINT L_Wrist_End
							{
								OFFSET 3.93700 -0.00001 0.00000
								CHANNELS 3 Xrotation Yrotation Zrotation
							}
						}
					}
				}
			}
			JOINT RightShoulder
			{
				OFFSET -0.08254 7.72853 -1.10446
				CHANNELS 3 Xrotation Yrotation Zrotation
				JOINT RightArm
				{
					OFFSET -7.63573 -0.00003 0.00000
					CHANNELS 3 Xrotation Yrotation Zrotation
					JOINT RightForeArm
					{
						OFFSET -10.94210 -0.00004 0.00000
						CHANNELS 3 Xrotation Yrotation Zrotation
						JOINT RightHand
						{
							OFFSET -9.96262 -0.00004 0.00000
							CHANNELS 3 Xrotation Yrotation Zrotation
							JOINT RightHandThumb
							{
								OFFSET 0.00000 0.00000 0.00000
								CHANNELS 3 Xrotation Yrotation Zrotation
								End Site
								{
									OFFSET 0.00000 0.00000 3.93700
								}
							}
							JOINT R_Wrist_End
							{
								OFFSET -5.39369 -0.00002 0.00000
								CHANNELS 3 Xrotation Yrotation Zrotation
							}
						}
					}
				}
			}
		}
	}
}
MOTION
Frames: 8
Frame Time: 0.008333
 43.9406 -89.5823 35.8514 -87.5826 -31.0415 178.0961 10.4185 5.6721 -4.1030 4.6229 -0.0000 -0.0000 -13.4787 7.8249 -7.9568 19.4605 0.0223 -0.1311 -3.9480 2.4363 -4.7519 13.7906 -0.0000 -0.0000 -1.9756 -5.8812 11.8980 -27.5622 0.6783 -0.2235 -3.2908 1.3976 -2.7888 -0.4893 -1.6611 0.8591 24.5686 -3.6506 -1.9020 -4.5263 -5.7313 7.6348 -15.6789 -5.5380 14.4737 -31.2018 -4.0004 -18.5466 -0.0000 -11.2272 -0.0000 -7.2876 3.8389 8.0656 -0.0000 -0.0000 0.0000 -0.0000 -0.0000 0.0000 -12.0246 7.7954 -10.7036 -36.0701 10.5484 24.9674 -0.0001 17.1895 0.0000 -1.5115 10.5375 -11.9540 -0.0000 -0.0000 0.0000 -0.0000 -0.0000 0.0000
 43.9323 -89.5673 35.8476 -87.5972 -31.0726 178.0880 10.4657 5.6653 -4.0981 4.5434 0.0000 -0.0000 -13.4734 7.8094 -7.8976 19.6849 0.0223 -0.1327 -3.8813 2.5276 -4.7454 13.7177 -0.0000 -0.0000 -2.0309 -5.9952 11.9147 -27.5067 0.6769 -0.2234 -3.2766 1.4215 -2.7851 -0.5309 -1.6366 0.8595 24.5112 -3.7077 -1.8619 -4.3702 -5.7604 7.6252 -15.6723 -5.4100 14.6656 -31.0747 -4.1361 -18.1967 -0.0000 -12.2239 -0.0000 -7.0939 3.3131 8.2461 -0.0000 0.0000 -0.0000 -0.0000 0.0000 -0.0000 -12.0721 7.7088 -10.9550 -36.2246 10.5716 24.6200 -0.0001 17.7934 0.0000 -1.6727 11.0072 -13.0372 -0.0000 -0.0000 0.0000 -0.0000 -0.0000 0.0000
 43.9223 -89.5556 35.8447 -87.6182 -31.1098 178.0764 10.5028 5.6505 -4.0977 4.4750 -0.0000 0.0000 -13.4450 7.7954 -7.9840 19.5793 0.0223 -0.1319 -3.7404 2.8507 -4.7457 13.4990 -0.0000 -0.0000 -2.0448 -6.2540 11.8947 -27.4352 0.6750 -0.2233 -3.2606 1.4426 -2.7687 -0.5826 -1.6151 0.8657 24.5609 -3.7150 -1.8979 -4.4130 -5.8418 7.7674 -15.5815 -5.2690 14.8457 -31.0584 -4.2760 -17.8917 -0.0000 -13.0015 -0.0000 -7.1600 2.5610 8.3372 -0.0000 0.0000 -0.0000 -0.0000 0.0000 -0.0000 -11.9841 7.6070 -11.2321 -36.3549 10.6585 24.2628 -0.0001 18.3545 0.0000 -2.0527 11.2586 -13.8272 -0.0000 -0.0000 0.0000 -0.0000 -0.0000 0.0000
 43.9126 -89.5453 35.8434 -87.6291 -31.1614 178.0647 10.5421 5.5841 -4.0925 4.4006 -0.0000 0.0000 -13.4518 7.8079 -7.9426 19.5939 0.0223 -0.1320 -3.6951 2.8394 -4.7484 13.4603 0.0000 -0.0000 -2.0512 -6.2725 11.8710 -27.5613 0.6783 -0.2235 -3.2294 1.4565 -2.7452 -0.6362 -1.6000 0.8796 24.6034 -3.7173 -1.9514 -4.4449 -5.9186 7.8892 -15.4833 -5.1166 15.0163 -30.9333 -4.5009 -17.6167 -0.0001 -13.5136 -0.0000 -6.8781 1.4731 9.0792 -0.0000 -0.0000 0.0000 -0.0000 -0.0000 0.0000 -11.8056 7.4836 -11.4942 -36.5827 10.7573 23.9086 -0.0001 18.8752 0.0000 -2.2850 11.4557 -14.4220 -0.0000 -0.0000 0.0000 -0.0000 -0.0000 0.0000
 43.9070 -89.5353 35.8422 -87.6367 -31.1864 178.0590 10.5680 5.5418 -4.0865 4.3671 0.0000 -0.0000 -13.4554 7.8211 -7.9521 19.6315 0.0223 -0.1323 -3.6824 2.8366 -4.7448 13.4744 -0.0000 0.0000 -2.1040 -6.3170 11.9208 -27.4681 0.6759 -0.2233 -3.2176 1.4703 -2.7381 -0.6585 -1.5858 0.8829 24.6364 -3.7461 -1.9622 -4.4474 -5.9725 7.9579 -15.4537 -5.0122 15.2084 -30.6688 -4.6764 -17.3230 -0.0001 -13.9271 -0.0000 -6.4094 0.4097 9.7754 -0.0000 0.0000 -0.0000 -0.0000 0.0000 -0.0000 -11.7782 7.4118 -11.7360 -36.4939 10.9331 23.5701 -0.0001 19.2429 0.0000 -2.1654 11.3547 -14.8921 -0.0000 -0.0000 0.0000 -0.0000 -0.0000 0.0000
 43.8906 -89.5180 35.8417 -87.6310 -31.2417 178.0432 10.6398 5.4742 -4.0733 4.2887 0.0000 -0.0000 -13.4387 7.8427 -7.9029 19.6194 0.0223 -0.1322 -3.6042 2.7427 -4.7384 13.4116 -0.0000 0.0000 -2.1278 -6.2862 11.9227 -27.4735 0.6760 -0.2234 -3.2352 1.4683 -2.7116 -0.6680 -1.5890 0.9110 24.7038 -3.7770 -1.9962 -4.4730 -5.9901 8.0222 -15.2907 -4.7827 15.3912 -30.4546 -5.0433 -17.1253 -0.0001 -14.0306 -0.0000 -6.1704 -0.8307 10.4400 -0.0000 0.0000 -0.0000 -0.0000 0.0000 -0.0000 -11.5394 7.2328 -11.9262 -36.7524 11.2912 23.2461 -0.0001 19.3111 0.0000 -0.8335 10.7754 -15.0204 -0.0000 0.0000 -0.0000 -0.0000 0.0000 -0.0000
 43.8811 -89.5097 35.8390 -87.6246 -31.2811 178.0438 10.6780 5.4672 -4.0743 4.2511 -0.0000 0.0000 -13.4382 7.8268 -7.9567 19.5963 0.0223 -0.1320 -3.6912 2.4225 -4.7449 13.6262 -0.0000 0.0000 -2.2071 -6.1083 11.9381 -27.5892 0.6790 -0.2236 -3.2291 1.4738 -2.7043 -0.6639 -1.5835 0.9203 24.6842 -3.8011 -1.9829 -4.3660 -6.0099 8.0390 -15.1901 -4.7270 15.6149 -29.9375 -5.2488 -16.8176 -0.0001 -14.0335 -0.0000 -5.5940 -2.1004 11.0725 -0.0000 0.0000 -0.0000 -0.0000 0.0000 -0.0000 -11.5469 7.1815 -12.1618 -36.5217 11.4674 22.9007 -0.0001 19.4846 0.0000 -0.2600 10.6945 -15.0910 -0.0000 0.0000 -0.0000 -0.0000 0.0000 -0.0000
 43.8723 -89.5011 35.8375 -87.6325 -31.3193 178.0222 10.7037 5.4549 -4.0554 4.2136 -0.0000 -0.0000 -13.4427 7.7956 -7.9193 19.6018 0.0223 -0.1321 -3.6872 2.3885 -4.7366 13.6509 -0.0000 0.0000 -2.2107 -6.1072 11.9693 -27.6119 0.6796 -0.2236 -3.2298 1.4854 -2.6851 -0.6755 -1.5722 0.9315 24.7504 -3.8780 -1.9560 -4.3768 -6.0474 8.0290 -15.0687 -4.6101 15.7878 -29.4554 -5.6683 -16.5571 -0.0001 -13.7826 -0.0000 -4.8597 -3.0775 12.1214 -0.0000 0.0000 -0.0000 -0.0000 0.0000 -0.0000 -11.3676 7.0371 -12.3436 -36.6409 11.7298 22.5846 -0.0001 19.4973 0.0000 -0.1576 10.8576 -14.6007 -0.0000 0.0000 -0.0000 -0.0000 0.0000 -0.0000
